<svg xmlns="http://www.w3.org/2000/svg" fill="none" viewBox="41 19.08 501.94 68">
<rect width="575" height="110" fill=""/>
<path d="M538.818 46.9998V34.9198C538.818 32.2398 537.818 30.7198 536.138 30.7198C534.058 30.7198 532.818 33.0798 532.818 37.3998V46.9998H528.658V27.7998H532.818V30.6398C533.738 28.5598 535.458 27.3198 537.618 27.3198C540.778 27.3198 542.938 29.8798 542.938 34.7198V46.9998H538.818Z" fill="#716349"/>
<path d="M516.162 47.4798C513.042 47.4798 510.842 44.8798 510.842 40.0798V27.7998H515.002V39.8398C515.002 42.5198 515.962 44.0798 517.682 44.0798C519.722 44.0798 521.002 41.7198 521.002 37.3998V27.7998H525.122V46.9998H521.002V44.1198C520.042 46.2398 518.322 47.4798 516.162 47.4798Z" fill="#716349"/>
<path d="M500.884 47.4798C496.364 47.4798 493.404 43.4798 493.404 37.3998C493.404 31.3198 496.364 27.3198 500.884 27.3198C505.404 27.3198 508.324 31.3598 508.324 37.3998C508.324 43.3998 505.404 47.4798 500.884 47.4798ZM500.884 44.0798C502.884 44.0798 504.204 41.5598 504.204 37.3998C504.204 33.1998 502.884 30.7198 500.884 30.7198C498.844 30.7198 497.564 33.1998 497.564 37.3998C497.564 41.5598 498.844 44.0798 500.884 44.0798Z" fill="#716349"/>
<path d="M482.955 46.9998V27.7998H487.115V31.2398C487.795 28.7198 489.435 27.3198 491.235 27.3198C491.835 27.3198 492.635 27.4798 493.235 27.8398L492.875 31.7598C492.115 31.3598 491.395 31.1598 490.795 31.1598C489.075 31.1598 487.115 32.4798 487.115 37.0798V46.9998H482.955Z" fill="#716349"/>
<path d="M473.115 47.4798C468.475 47.4798 465.475 43.1998 465.475 37.3998C465.475 31.4798 468.595 27.3198 473.195 27.3198C478.315 27.3198 481.075 32.3998 479.995 37.9598H469.435C469.395 42.3598 471.275 44.0798 473.115 44.0798C474.835 44.0798 475.915 42.6798 476.075 40.6798L480.035 40.9998C479.595 44.8398 476.755 47.4798 473.115 47.4798ZM469.635 35.1998H476.075C476.155 32.4798 474.995 30.5598 473.115 30.5598C471.195 30.5598 469.875 32.5198 469.635 35.1998Z" fill="#716349"/>
<path d="M448.08 47.0001V19.0801H454.84C459.48 19.0801 462.64 21.1601 462.64 26.2001C462.64 29.0001 461.56 31.0401 459.32 31.9201C461.6 32.4001 463.76 34.3201 463.76 38.8801C463.76 43.9601 461.08 47.0001 456.04 47.0001H448.08ZM452.48 43.4001H455.68C457.88 43.4001 459.32 41.7201 459.32 38.8001C459.32 35.6801 457.64 34.1601 455.48 34.1601H452.48V43.4001ZM452.48 30.9601H454.92C456.84 30.9601 458.24 29.3601 458.24 26.6401C458.24 23.9201 456.84 22.6801 454.92 22.6801H452.48V30.9601Z" fill="#716349"/>
<path d="M403.522 86.0002C402.982 84.6502 402.712 81.9502 402.622 79.4302C401.002 84.1102 397.492 87.0802 392.092 87.0802C385.432 87.0802 380.662 82.6702 380.662 75.2902C380.662 59.6302 402.442 63.5902 402.532 54.9502C402.532 51.4402 400.192 49.0102 396.682 49.0102C392.632 49.0102 390.022 52.4302 389.842 57.7402L380.752 56.7502C381.652 47.8402 388.042 41.7202 397.042 41.7202C405.862 41.7202 411.802 47.6602 411.802 57.1102V75.7402C411.802 78.9802 412.252 84.3802 413.422 86.0002H403.522ZM402.532 67.8202V63.8602C399.292 67.1002 390.202 67.6402 390.202 74.7502C390.202 77.9002 392.002 79.8802 394.792 79.8802C399.922 79.8802 402.532 73.2202 402.532 67.8202Z" fill="#716349"/>
<path d="M365.596 86.0002V58.8202C365.596 52.7902 363.346 49.3702 359.566 49.3702C354.886 49.3702 352.096 54.6802 352.096 64.4002V86.0002H342.736V42.8002H352.096V49.1902C354.166 44.5102 358.036 41.7202 362.896 41.7202C370.006 41.7202 374.866 47.4802 374.866 58.3702V86.0002H365.596Z" fill="#716349"/>
<path d="M314.716 85.9998L303.016 42.7998H312.826L316.966 60.5298C319.756 71.9598 320.746 78.7098 320.746 78.7098C320.746 78.7098 322.006 71.8698 324.526 60.6198L328.576 42.7998H338.206L326.506 85.9998H314.716Z" fill="#716349"/>
<path d="M284.639 87.0802C274.469 87.0802 267.809 78.0802 267.809 64.4002C267.809 50.7202 274.469 41.7202 284.639 41.7202C294.809 41.7202 301.379 50.8102 301.379 64.4002C301.379 77.9002 294.809 87.0802 284.639 87.0802ZM284.639 79.4302C289.139 79.4302 292.109 73.7602 292.109 64.4002C292.109 54.9502 289.139 49.3702 284.639 49.3702C280.049 49.3702 277.169 54.9502 277.169 64.4002C277.169 73.7602 280.049 79.4302 284.639 79.4302Z" fill="#716349"/>
<path d="M234.367 86.0002V23.1802H243.727V59.2702L256.417 42.8002H267.667L254.707 58.2802L268.117 86.0002H257.587L248.227 65.9302L243.727 71.3302V86.0002H234.367Z" fill="#716349"/>
<path d="M214.121 87.0802C205.121 87.0802 198.731 81.2302 198.191 71.5102L206.831 70.9702C207.011 76.2802 209.441 80.1502 213.761 80.1502C217.001 80.1502 219.341 77.9902 219.341 74.5702C219.341 65.0302 199.181 70.4302 199.181 55.0402C199.181 46.2202 205.841 41.7202 213.311 41.7202C221.051 41.7202 227.081 46.6702 227.621 55.1302L218.981 55.5802C218.801 51.4402 216.821 48.6502 213.491 48.6502C210.611 48.6502 208.451 50.6302 208.451 53.7802C208.451 63.2302 228.701 57.3802 228.701 73.3102C228.701 82.4002 222.221 87.0802 214.121 87.0802Z" fill="#716349"/>
<path d="M183.127 86.0002V42.8002H192.487V86.0002H183.127ZM183.937 36.9502L189.877 23.1802H199.597L191.857 36.9502H183.937Z" fill="#716349"/>
<path d="M143.68 86.0002V23.1802H158.98C171.13 23.1802 177.88 31.1902 177.88 44.0602C177.88 56.9302 171.13 64.9402 158.98 64.9402H153.58V86.0002H143.68ZM153.58 56.8402H157.54C164.02 56.8402 167.8 52.1602 167.8 44.0602C167.8 35.9602 164.02 31.2802 157.54 31.2802H153.58V56.8402Z" fill="#716349"/>
<path d="M115.995 64.5657V54.8768C109.254 54.8768 103.602 55.4796 98.7286 56.4713V23H58.2665V63.3066C61.9679 61.9745 64.7549 60.2195 67.9504 58.5472V32.6792H89.0447V59.257C83.3735 61.396 78.8891 64.0309 74.677 66.5249C66.1654 71.5565 58.1255 76.3111 41 76.3111V86C60.7811 86 70.3531 80.3364 79.6138 74.8623C88.5681 69.5633 97.0263 64.5608 116 64.5608" fill="#716349"/>
</svg>